<?xml version="1.0" standalone="no"?>
<!DOCTYPE svg PUBLIC "-//W3C//DTD SVG 20010904//EN"
 "http://www.w3.org/TR/2001/REC-SVG-20010904/DTD/svg10.dtd">
<svg version="1.0" xmlns="http://www.w3.org/2000/svg"
 width="378.000000pt" height="378.000000pt" viewBox="0 0 378.000000 378.000000"
 preserveAspectRatio="xMidYMid meet">
<metadata>
Created by potrace 1.11, written by Peter Selinger 2001-2013
</metadata>
<g transform="translate(0.000000,378.000000) scale(0.100000,-0.100000)"
fill="#000000" stroke="none">
<path d="M1167 3774 c-1 -1 -47 -4 -102 -8 -237 -16 -494 -123 -659 -276 -23
-21 -53 -48 -67 -61 -14 -13 -46 -50 -72 -82 -137 -169 -219 -361 -252 -587
-9 -60 -9 -1669 0 -1740 3 -30 10 -71 15 -90 5 -19 12 -51 15 -70 8 -48 71
-202 106 -262 16 -27 29 -51 29 -54 0 -3 26 -40 59 -82 179 -235 439 -395 726
-446 120 -21 1720 -21 1848 0 445 74 806 400 926 836 11 40 23 89 27 108 4 19
9 424 11 900 2 926 3 922 -48 1095 -82 278 -295 538 -559 682 -120 65 -285
116 -422 129 -49 5 -1575 12 -1581 8z"/>
</g>
</svg>
